PathFileType	4	(X/Y/Z)	/Users/niels/Desktop/University/Third Semester/Perception and Action/Exam/Gymnastics Motion Tracking/Code for Gym Tracking/Scripts/Analyzed Data/Start Salto/st_salto_good_id8_1_Sports2D/st_salto_good_id8_1_Sports2D_px_person00.trc
DataRate	CameraRate	NumFrames	NumMarkers	Units	OrigDataRate	OrigDataStartFrame	OrigNumFrames
156.22293616426876	156.22293616426876	11	22	m	156.22293616426876	116	467
Frame#	Time	Hip			RHip			RKnee			RAnkle			RBigToe			RSmallToe			RHeel			LHip			LKnee			LAnkle			LBigToe			LSmallToe			LHeel			Neck			Head			Nose			RShoulder			RElbow			RWrist			LShoulder			LElbow			LWrist		
		X1	Y1	Z1	X2	Y2	Z2	X3	Y3	Z3	X4	Y4	Z4	X5	Y5	Z5	X6	Y6	Z6	X7	Y7	Z7	X8	Y8	Z8	X9	Y9	Z9	X10	Y10	Z10	X11	Y11	Z11	X12	Y12	Z12	X13	Y13	Z13	X14	Y14	Z14	X15	Y15	Z15	X16	Y16	Z16	X17	Y17	Z17	X18	Y18	Z18	X19	Y19	Z19	X20	Y20	Z20	X21	Y21	Z21	X22	Y22	Z22
116	0.7425286123032904	-0.002227632630232608	-0.4863257111940881	0.0	0.009018420906922297	-0.4988418288960746	0.0	0.059299873052239195	-0.5388534907486886	0.0	-0.0021712073633857057	-0.6176507754150993	0.0	0.011639918773236484	-0.653915292708386	0.0	0.010363835018716072	-0.6525096627386542	0.0	0.006218344059196633	-0.6415613348639565	0.0	-0.0023710918048687043	-0.4933149430876946	0.0	0.07137591570081031	-0.5435815896726739	0.0	-0.00794424293579371	-0.6092700711182814	0.0	0.010173516524560808	-0.6595154058174476	0.0	0.011547806666293079	-0.6553126758801502	0.0	-0.024664997523175664	-0.6218847496248295	0.0	0.0005229817401393548	-0.3120851747774919	0.0	0.007454183636770877	-0.23952442646739275	0.0	0.008732592039453436	-0.2631584758797336	0.0	0.0006215208684484864	-0.33305020489828807	0.0	0.008799166057396716	-0.3218950002360782	0.0	0.01969881822367663	-0.25354772824423677	0.0	-0.0025060845678451732	-0.33298268037859324	0.0	0.05312780544245364	-0.34418709281039406	0.0	0.11441858221834106	-0.3120872438776074	0.0
117	0.748929721030043	-0.0022550014782176664	-0.4863262911214613	0.0	0.00901688210355967	-0.4988382813943073	0.0	0.05926693577024454	-0.5387989242375514	0.0	-0.0021994581182896503	-0.6176770239901407	0.0	0.011581205354680475	-0.6539412716779724	0.0	0.010328192927748132	-0.652532709695144	0.0	0.006203943382285218	-0.641620518059082	0.0	-0.0024277603615172456	-0.49331899002837015	0.0	0.07128581458837495	-0.5435956202854411	0.0	-0.008017168945498844	-0.6092956586031947	0.0	0.010087187759619694	-0.659552236253652	0.0	0.011461570333562994	-0.6553486423889223	0.0	-0.024734282531633144	-0.621919779637525	0.0	0.0004704609746727442	-0.3120939851631835	0.0	0.007391880972114948	-0.23952568916499214	0.0	0.008642259809223368	-0.2631422443833676	0.0	0.0005974726049915839	-0.3330696228744229	0.0	0.00872031005538575	-0.32190839900763074	0.0	0.019572755585283957	-0.25355682630466625	0.0	-0.002602624512278207	-0.3329856296942659	0.0	0.053003086406972294	-0.3442003873659309	0.0	0.11428419602618338	-0.3120983520088932	0.0
118	0.7553308297567954	-0.0022899413144088004	-0.4863269034162266	0.0	0.00901071423619295	-0.4988345877972297	0.0	0.05922269426405691	-0.5387422640337872	0.0	-0.0022363223931347216	-0.6177036076477492	0.0	0.011510799954353444	-0.6539673585384411	0.0	0.010282905201128624	-0.6525555451845629	0.0	0.006182909730264838	-0.6416823591671263	0.0	-0.002494705205983642	-0.49332338129217984	0.0	0.07118218810673724	-0.5436105811138433	0.0	-0.008103198909322096	-0.6093217001667084	0.0	0.009985617924476482	-0.6595906576943852	0.0	0.011360425991089853	-0.6553863646765828	0.0	-0.024816233984325864	-0.6219558300130469	0.0	0.00040670090836161826	-0.31210338717333164	0.0	0.007317319435956601	-0.23952712648098815	0.0	0.008536743658601482	-0.26312432244134587	0.0	0.000565460620331324	-0.3330906455905319	0.0	0.008627165466421017	-0.3219223870806185	0.0	0.01942842536378758	-0.2535661665006671	0.0	-0.002714075100657179	-0.332988455728083	0.0	0.05286088754525475	-0.34421453006608344	0.0	0.11413164641182379	-0.31211040918955546	0.0
119	0.7617319384835479	-0.0023333046715302724	-0.4863275443986205	0.0	0.00899915562560232	-0.498830779427392	0.0	0.05916575019391506	-0.538684017994894	0.0	-0.002282815791301509	-0.6177301679709998	0.0	0.011427646229971	-0.6539931605609443	0.0	0.01022689792811505	-0.6525777686416873	0.0	0.006154344660138761	-0.641746373089716	0.0	-0.0025727746467197523	-0.49332811131384835	0.0	0.07106416522765706	-0.5436264081132288	0.0	-0.008203404049070702	-0.6093478680577396	0.0	0.009867584973038338	-0.6596303575512661	0.0	0.01124320668478973	-0.655425571803236	0.0	-0.024911906422065574	-0.6219925197535893	0.0	0.0003306240828069417	-0.31211334186603745	0.0	0.0072294032171020175	-0.23952874808715036	0.0	0.008414894590004865	-0.26310467983255037	0.0	0.0005245131551572578	-0.3331132382970155	0.0	0.008518553741612294	-0.3219368525195272	0.0	0.01926472028780549	-0.25357564599454874	0.0	-0.002841440706754947	-0.33299109088129664	0.0	0.052700214090033254	-0.3442294545765071	0.0	0.11395997548905082	-0.31212340081355633	0.0
120	0.7681330472103004	-0.0023859690535007485	-0.4863282092519176	0.0	0.00898138850030063	-0.498826895237567	0.0	0.05909464663811058	-0.5386248133410427	0.0	-0.002339990081845972	-0.6177562803810672	0.0	0.011330693464581409	-0.6540182166231953	0.0	0.010159067462073953	-0.6525989148302191	0.0	0.006117302120441079	-0.6418119503030564	0.0	-0.002662798441815537	-0.49333316813509304	0.0	0.07093094102356201	-0.5436430116457821	0.0	-0.008318830147044175	-0.6093737716876431	0.0	0.009731900502627558	-0.6596709449841485	0.0	0.011108783188948503	-0.655465919042117	0.0	-0.025022333036126512	-0.6220293870223949	0.0	0.00024114791688556073	-0.3121237943260654	0.0	0.007127044397311426	-0.2395305625346615	0.0	0.008275608748841246	-0.26308330795110546	0.0	0.0004736194479581347	-0.33313733495290704	0.0	0.008393322290872321	-0.32195165505776174	0.0	0.01908063410502743	-0.2535851406553615	0.0	-0.002985660327748341	-0.33299345802733293	0.0	0.05252017893240976	-0.3442450698794564	0.0	0.11376835010863065	-0.31213729477850094	0.0
121	0.774534155937053	-0.002448827686512865	-0.4863288918875938	0.0	0.00895654152349897	-0.4988229826107843	0.0	0.05900788027068116	-0.5385654088876494	0.0	-0.002408923271265078	-0.6177814485737763	0.0	0.011218914235604723	-0.6540419918099932	0.0	0.01007829236306982	-0.6526184491993682	0.0	0.006070794582700316	-0.641878343405589	0.0	-0.0027655712268466128	-0.49333853240713094	0.0	0.07078180167334272	-0.5436602731480785	0.0	-0.00845047627706889	-0.6093989521460353	0.0	0.009577434802389517	-0.6597119425596639	0.0	0.010956088876579003	-0.6555069796373081	0.0	-0.02514850535770019	-0.6220658814453872	0.0	0.00013720088484926482	-0.3121346715686841	0.0	0.007009181629877936	-0.2395325769108087	0.0	0.008117853268772976	-0.26306022395487066	0.0	0.0004117384878897863	-0.3331628334623412	0.0	0.008250367538229194	-0.3219666230580429	0.0	0.018875296255170777	-0.2535945030703841	0.0	-0.0031475805915290723	-0.33299546996351564	0.0	0.05232003664209918	-0.344261257132048	0.0	0.11355609819499513	-0.31215203874581426	0.0
122	0.7809352646638055	-0.0025227783045191805	-0.48632958480558397	0.0	0.008923693636670227	-0.4988190981754836	0.0	0.05890391653381246	-0.5385067074664662	0.0	-0.002490707417196335	-0.6178050990583008	0.0	0.011091324995113205	-0.6540638721790495	0.0	0.009983447838828116	-0.652635763475219	0.0	0.006013800967320077	-0.6419446533501141	0.0	-0.002881833422239304	-0.4933441763249615	0.0	0.07061615266832572	-0.5436780416377262	0.0	-0.008599270326522112	-0.6094228767796307	0.0	0.009403145622664753	-0.6597527777314939	0.0	0.010784148215875136	-0.6555482363293773	0.0	-0.025291349836368784	-0.6221013563846647	0.0	1.7741522559534294e-05	-0.3121458803403093	0.0	0.0068748018649909	-0.23953479645511014	0.0	0.007940695791302705	-0.2630354752763531	0.0	0.0003378098710094887	-0.33318959059726627	0.0	0.008088661481259035	-0.32198155040493676	0.0	0.018648010832130194	-0.2536035605558667	0.0	-0.0033279252150009517	-0.3329970289204441	0.0	0.05209922156098458	-0.3442778663815991	0.0	0.1133227492793558	-0.3121675572125226	0.0
123	0.787336373390558	-0.002608709781701648	-0.4863302789509334	0.0	0.008881879403289723	-0.49881530862569684	0.0	0.058781208120777584	-0.5384497683736577	0.0	-0.002586433957714147	-0.6178265759033871	0.0	0.010947009776122986	-0.6540831598056179	0.0	0.009873422919342548	-0.6526501716002214	0.0	0.0059452765715589375	-0.6420098155196448	0.0	-0.0030122494543797073	-0.49335006249762337	0.0	0.07043355036617106	-0.5436961300844985	0.0	-0.008766041100972932	-0.6094449339315628	0.0	0.009208110900828964	-0.6597927742440803	0.0	0.010592109114975264	-0.6555890727399456	0.0	-0.02545170110070566	-0.6221350613008853	0.0	-0.00011821951389339975	-0.31215730483159404	0.0	0.0067229653436960135	-0.23953722413342166	0.0	0.007743337874656404	-0.2630091444919411	0.0	0.0002507669785425825	-0.3332174166284939	0.0	0.007907281984857618	-0.32199619336608626	0.0	0.01839830001502847	-0.2536121131983654	0.0	-0.003527260737820386	-0.33299802614749013	0.0	0.05185739012336205	-0.3442947131634814	0.0	0.11306807936687512	-0.31218374840600094	0.0
124	0.7937374821173104	-0.00270748642377722	-0.4863309635684427	0.0	0.008830096046672455	-0.4988116915342145	0.0	0.058638217091488316	-0.5383958196529093	0.0	-0.002697176327181276	-0.6178451358127476	0.0	0.010785147230072664	-0.6540990682360863	0.0	0.00974714060081593	-0.652660906149671	0.0	0.005864165214164832	-0.642072585838302	0.0	-0.0031573831364245493	-0.49335614276041506	0.0	0.07023373701489531	-0.5437143116782207	0.0	-0.008951486818459557	-0.6094644279542175	0.0	0.008991565660219381	-0.659831143581578	0.0	0.01037927931760591	-0.6556287647253125	0.0	-0.02563027170820403	-0.6221661343418871	0.0	-0.0002715941196083966	-0.3121688043228957	0.0	0.006552834071721295	-0.23953986016896148	0.0	0.007525152485306264	-0.26298135453892885	0.0	0.00014955269969687407	-0.333246069695897	0.0	0.007705447023217831	-0.32201026746599865	0.0	0.01812595211052546	-0.25361993196333893	0.0	-0.0037459583823832936	-0.33299834159510233	0.0	0.05159446751784731	-0.3443115750135138	0.0	0.11279216023249836	-0.31220048101795617	0.0
125	0.8001385908440629	-0.002819929732110139	-0.4863316260572328	0.0	0.008767312385018156	-0.49880833614456843	0.0	0.058473440945040873	-0.538346269988602	0.0	-0.0028239696300309956	-0.6178599436686483	0.0	0.010605041186042934	-0.654110718498379	0.0	0.0096035811913919	-0.6526671153704205	0.0	0.005769413815973245	-0.6421315271435107	0.0	-0.0033176700711178213	-0.4933623569371006	0.0	0.07001667933699822	-0.543732316033297	0.0	-0.009156139821724916	-0.6094805746252553	0.0	0.008752943272947598	-0.659866976605743	0.0	0.010145167025684486	-0.6556664718302019	0.0	-0.025827618211493618	-0.6221935953168054	0.0	-0.00044318793609990316	-0.3121802107868241	0.0	0.006363703968595136	-0.23954270152967652	0.0	0.00728572573676817	-0.26295227426234535	0.0	3.313792258397868e-05	-0.3332752499584109	0.0	0.007482553061108874	-0.3220234444241827	0.0	0.017831074302206082	-0.25362675691341807	0.0	-0.003984151924458909	-0.33299784371691327	0.0	0.0513106987585623	-0.34432818793421016	0.0	0.11249541318753906	-0.3122175907994808	0.0
126	0.8065396995708155	-0.002946797460055956	-0.48633225182751655	0.0	0.008692479874459555	-0.49880534412536726	0.0	0.058285442971243155	-0.5383027199484902	0.0	-0.002967787147967663	-0.6178700687011075	0.0	0.010406154901920647	-0.6541171358356517	0.0	0.009441809083624688	-0.6526678610041793	0.0	0.0056599896379450464	-0.6421849960836267	0.0	-0.003493386959476285	-0.4933686315624007	0.0	0.06978261072404465	-0.5437498253781692	0.0	-0.00938032736470571	-0.6094924971141977	0.0	0.00849192124376914	-0.6598992355501385	0.0	0.009889525890763869	-0.6557012289954364	0.0	-0.026044103393969693	-0.6222163392384105	0.0	-0.0006336678808253674	-0.31219132647783626	0.0	0.0061550408656067465	-0.2395457413719573	0.0	0.007024903003666757	-0.2629221242650439	0.0	-9.945698549311687e-05	-0.33330459357552567	0.0	0.0072382177355316615	-0.32203534921802746	0.0	0.0175141501461778	-0.2536322955848979	0.0	-0.004241691500533833	-0.3329963894170202	0.0	0.05100670417600657	-0.34434424286223175	0.0	0.11217866729618582	-0.3122348770452626	0.0
